<svg width="51" height="51" viewBox="0 0 51 51" fill="none" filter="drop-shadow(0 0 2.5px #00000040)" xmlns="http://www.w3.org/2000/svg">
<path id="fill" fill-rule="evenodd" clip-rule="evenodd" d="M31.75 37.5C42.1053 37.5 50.5 29.1053 50.5 18.75C50.5 8.39466 42.1053 0 31.75 0C21.3947 0 13 8.39466 13 18.75C13 23.0263 14.4316 26.9683 16.8417 30.1228L9 37.9645L4.76777 33.7322C3.79146 32.7559 2.20854 32.7559 1.23223 33.7322C0.255922 34.7085 0.255922 36.2915 1.23223 37.2678L5.46447 41.5L1.23223 45.7322C0.255922 46.7085 0.255922 48.2915 1.23223 49.2678C2.20854 50.2441 3.79146 50.2441 4.76777 49.2678L9 45.0355L13.2336 49.2691C14.2099 50.2454 15.7928 50.2454 16.7691 49.2691C17.7454 48.2928 17.7454 46.7099 16.7691 45.7336L12.5355 41.5L20.3772 33.6583C23.5317 36.0684 27.4737 37.5 31.75 37.5ZM31.75 30C25.5368 30 20.5 24.9632 20.5 18.75C20.5 12.5368 25.5368 7.5 31.75 7.5C37.9632 7.5 43 12.5368 43 18.75C43 24.9632 37.9632 30 31.75 30Z" fill="#DF5959"/>
</svg>
