<svg width="50" height="50" viewBox="-50 -50 150 150" fill="none" xmlns="http://www.w3.org/2000/svg">
<style>
    svg {
        animation: spin 1s linear infinite;
    }

    @keyframes spin {
        from {
            transform: rotate(0deg);
        }
        to {
            transform: rotate(360deg);
        }
    }
</style>
<path fill-rule="evenodd" clip-rule="evenodd" d="M48.097 15.4329C49.0975 17.8484 49.7114 20.402 49.9199 23H31.7101C30.8496 20.1085 28.171 18 25 18C21.829 18 19.1504 20.1085 18.2899 23H0.0801268C0.288632 20.402 0.902476 17.8484 1.90301 15.4329C3.15938 12.3998 5.00086 9.6438 7.32233 7.32233C9.64379 5.00087 12.3998 3.15938 15.4329 1.90301C18.4661 0.646644 21.717 0 25 0C28.283 0 31.5339 0.646644 34.5671 1.90301C37.6002 3.15938 40.3562 5.00087 42.6777 7.32233C44.9991 9.6438 46.8406 12.3998 48.097 15.4329ZM0 25C0 24.3315 0.0268129 23.6643 0.0801268 23H0V25ZM0.0801267 27C0.0268128 26.3357 0 25.6685 0 25V27H0.0801267ZM18.2899 27H0.0801267C0.288632 29.598 0.902476 32.1516 1.90301 34.5671C3.15938 37.6002 5.00087 40.3562 7.32233 42.6777C9.6438 44.9991 12.3998 46.8406 15.4329 48.097C18.4661 49.3534 21.717 50 25 50C28.283 50 31.5339 49.3534 34.5671 48.097C37.6002 46.8406 40.3562 44.9991 42.6777 42.6777C44.9991 40.3562 46.8406 37.6002 48.097 34.5671C49.0975 32.1516 49.7114 29.598 49.9199 27H50V25V23H49.9199C49.9732 23.6643 50 24.3315 50 25C50 25.6685 49.9732 26.3357 49.9199 27H31.7101C30.8496 29.8915 28.171 32 25 32C21.829 32 19.1504 29.8915 18.2899 27Z" fill="#C2422C"/>
</svg>
