<svg width="51" height="51" viewBox="0 0 51 51" fill="none" filter="drop-shadow(0 0 2.5px #00000040)" xmlns="http://www.w3.org/2000/svg">
<mask id="path-1-inside-1_7_12" fill="white">
<path fill-rule="evenodd" clip-rule="evenodd" d="M48.0563 0H25.5563C24.1756 0 23.0563 1.11929 23.0563 2.5C23.0563 3.88071 24.1756 5 25.5563 5H42.0208L30.6228 16.398C27.4683 13.9879 23.5263 12.5564 19.25 12.5564C8.89466 12.5564 0.5 20.951 0.5 31.3064C0.5 41.6617 8.89466 50.0564 19.25 50.0564C29.6053 50.0564 38 41.6617 38 31.3064C38 27.03 36.5684 23.088 34.1583 19.9335L45.5563 8.53553V25C45.5563 26.3807 46.6756 27.5 48.0563 27.5C49.4371 27.5 50.5563 26.3807 50.5563 25V2.5C50.5563 1.11929 49.4371 0 48.0563 0ZM19.25 42.5564C13.0368 42.5564 8 37.5196 8 31.3064C8 25.0931 13.0368 20.0564 19.25 20.0564C25.4632 20.0564 30.5 25.0931 30.5 31.3064C30.5 37.5196 25.4632 42.5564 19.25 42.5564Z"/>
</mask>
<path id="fill" fill-rule="evenodd" clip-rule="evenodd" d="M48.0563 0H25.5563C24.1756 0 23.0563 1.11929 23.0563 2.5C23.0563 3.88071 24.1756 5 25.5563 5H42.0208L30.6228 16.398C27.4683 13.9879 23.5263 12.5564 19.25 12.5564C8.89466 12.5564 0.5 20.951 0.5 31.3064C0.5 41.6617 8.89466 50.0564 19.25 50.0564C29.6053 50.0564 38 41.6617 38 31.3064C38 27.03 36.5684 23.088 34.1583 19.9335L45.5563 8.53553V25C45.5563 26.3807 46.6756 27.5 48.0563 27.5C49.4371 27.5 50.5563 26.3807 50.5563 25V2.5C50.5563 1.11929 49.4371 0 48.0563 0ZM19.25 42.5564C13.0368 42.5564 8 37.5196 8 31.3064C8 25.0931 13.0368 20.0564 19.25 20.0564C25.4632 20.0564 30.5 25.0931 30.5 31.3064C30.5 37.5196 25.4632 42.5564 19.25 42.5564Z" fill="#5E91DC"/>
<path id="stroke" d="M42.0208 5L42.7279 5.70711L44.435 4H42.0208V5ZM30.6228 16.398L30.0157 17.1926L30.7111 17.7239L31.3299 17.1051L30.6228 16.398ZM34.1583 19.9335L33.4512 19.2264L32.8324 19.8452L33.3637 20.5406L34.1583 19.9335ZM45.5563 8.53553H46.5563V6.12132L44.8492 7.82843L45.5563 8.53553ZM25.5563 1H48.0563V-1H25.5563V1ZM24.0563 2.5C24.0563 1.67157 24.7279 1 25.5563 1V-1C23.6234 -1 22.0563 0.567004 22.0563 2.5H24.0563ZM25.5563 4C24.7279 4 24.0563 3.32843 24.0563 2.5H22.0563C22.0563 4.433 23.6234 6 25.5563 6V4ZM42.0208 4H25.5563V6H42.0208V4ZM31.3299 17.1051L42.7279 5.70711L41.3137 4.29289L29.9157 15.6909L31.3299 17.1051ZM19.25 13.5564C23.2994 13.5564 27.0295 14.9111 30.0157 17.1926L31.2299 15.6034C27.9071 13.0648 23.7533 11.5564 19.25 11.5564V13.5564ZM1.5 31.3064C1.5 21.5033 9.44695 13.5564 19.25 13.5564V11.5564C8.34238 11.5564 -0.5 20.3987 -0.5 31.3064H1.5ZM19.25 49.0564C9.44695 49.0564 1.5 41.1094 1.5 31.3064H-0.5C-0.5 42.214 8.34238 51.0564 19.25 51.0564V49.0564ZM37 31.3064C37 41.1094 29.0531 49.0564 19.25 49.0564V51.0564C30.1576 51.0564 39 42.214 39 31.3064H37ZM33.3637 20.5406C35.6452 23.5269 37 27.257 37 31.3064H39C39 26.803 37.4916 22.6492 34.953 19.3264L33.3637 20.5406ZM44.8492 7.82843L33.4512 19.2264L34.8654 20.6406L46.2635 9.24264L44.8492 7.82843ZM46.5563 25V8.53553H44.5563V25H46.5563ZM48.0563 26.5C47.2279 26.5 46.5563 25.8284 46.5563 25H44.5563C44.5563 26.933 46.1234 28.5 48.0563 28.5V26.5ZM49.5563 25C49.5563 25.8284 48.8848 26.5 48.0563 26.5V28.5C49.9893 28.5 51.5563 26.933 51.5563 25H49.5563ZM49.5563 2.5V25H51.5563V2.5H49.5563ZM48.0563 1C48.8848 1 49.5563 1.67157 49.5563 2.5H51.5563C51.5563 0.567004 49.9893 -1 48.0563 -1V1ZM7 31.3064C7 38.0718 12.4845 43.5564 19.25 43.5564V41.5564C13.5891 41.5564 9 36.9673 9 31.3064H7ZM19.25 19.0564C12.4845 19.0564 7 24.5409 7 31.3064H9C9 25.6454 13.5891 21.0564 19.25 21.0564V19.0564ZM31.5 31.3064C31.5 24.5409 26.0155 19.0564 19.25 19.0564V21.0564C24.9109 21.0564 29.5 25.6454 29.5 31.3064H31.5ZM19.25 43.5564C26.0155 43.5564 31.5 38.0718 31.5 31.3064H29.5C29.5 36.9673 24.9109 41.5564 19.25 41.5564V43.5564Z" fill="#5E91DC" mask="url(#path-1-inside-1_7_12)"/>
</svg>
