<svg width="50" height="74" viewBox="-25 -25 100 124" fill="none" xmlns="http://www.w3.org/2000/svg">
<mask id="path-1-inside-1_16_64" fill="white">
<path d="M0 49C0 52.283 0.646644 55.5339 1.90301 58.5671C3.15938 61.6002 5.00087 64.3562 7.32233 66.6777C9.6438 68.9991 12.3998 70.8406 15.4329 72.097C18.4661 73.3534 21.717 74 25 74C28.283 74 31.5339 73.3534 34.5671 72.097C37.6002 70.8406 40.3562 68.9991 42.6777 66.6777C44.9991 64.3562 46.8406 61.6002 48.097 58.5671C49.3534 55.5339 50 52.283 50 49L25 49L0 49Z"/>
</mask>
<path d="M0 49C0 52.283 0.646644 55.5339 1.90301 58.5671C3.15938 61.6002 5.00087 64.3562 7.32233 66.6777C9.6438 68.9991 12.3998 70.8406 15.4329 72.097C18.4661 73.3534 21.717 74 25 74C28.283 74 31.5339 73.3534 34.5671 72.097C37.6002 70.8406 40.3562 68.9991 42.6777 66.6777C44.9991 64.3562 46.8406 61.6002 48.097 58.5671C49.3534 55.5339 50 52.283 50 49L25 49L0 49Z" fill="white" stroke="black" stroke-width="2" mask="url(#path-1-inside-1_16_64)"/>
<mask id="path-2-inside-2_16_64" fill="white">
<path fill-rule="evenodd" clip-rule="evenodd" d="M31.9828 60.5059C42.3917 58.995 50 54.1917 50 48.5C50 41.5964 38.8071 36 25 36C11.1929 36 0 41.5964 0 48.5C0 54.1917 7.60828 58.995 18.0172 60.5059C18.0058 60.6691 18 60.8339 18 61C18 64.866 21.134 68 25 68C28.866 68 32 64.866 32 61C32 60.8339 31.9942 60.6691 31.9828 60.5059Z"/>
</mask>
<path fill-rule="evenodd" clip-rule="evenodd" d="M31.9828 60.5059C42.3917 58.995 50 54.1917 50 48.5C50 41.5964 38.8071 36 25 36C11.1929 36 0 41.5964 0 48.5C0 54.1917 7.60828 58.995 18.0172 60.5059C18.0058 60.6691 18 60.8339 18 61C18 64.866 21.134 68 25 68C28.866 68 32 64.866 32 61C32 60.8339 31.9942 60.6691 31.9828 60.5059Z" fill="#D6D6D6"/>
<path d="M31.9828 60.5059L31.8392 59.5163L30.9207 59.6496L30.9853 60.5754L31.9828 60.5059ZM18.0172 60.5059L19.0147 60.5754L19.0793 59.6496L18.1608 59.5163L18.0172 60.5059ZM49 48.5C49 50.863 47.4165 53.2207 44.3463 55.2346C41.297 57.2348 36.9422 58.7755 31.8392 59.5163L32.1265 61.4955C37.4324 60.7253 42.0861 59.109 45.4432 56.9069C48.7794 54.7186 51 51.8287 51 48.5H49ZM25 37C31.782 37 37.8725 38.3766 42.2305 40.5556C46.6483 42.7645 49 45.631 49 48.5H51C51 44.4654 47.7553 41.0819 43.1249 38.7667C38.4347 36.4216 32.0251 35 25 35V37ZM1 48.5C1 45.631 3.35174 42.7645 7.76954 40.5556C12.1275 38.3766 18.218 37 25 37V35C17.9749 35 11.5653 36.4216 6.87512 38.7667C2.2447 41.0819 -1 44.4654 -1 48.5H1ZM18.1608 59.5163C13.0578 58.7755 8.70299 57.2348 5.65374 55.2346C2.5835 53.2207 1 50.863 1 48.5H-1C-1 51.8287 1.22065 54.7186 4.55677 56.9069C7.91388 59.109 12.5676 60.7253 17.8735 61.4955L18.1608 59.5163ZM19 61C19 60.8571 19.005 60.7155 19.0147 60.5754L17.0196 60.4363C17.0066 60.6227 17 60.8106 17 61H19ZM25 67C21.6863 67 19 64.3137 19 61H17C17 65.4183 20.5817 69 25 69V67ZM31 61C31 64.3137 28.3137 67 25 67V69C29.4183 69 33 65.4183 33 61H31ZM30.9853 60.5754C30.995 60.7155 31 60.8571 31 61H33C33 60.8106 32.9934 60.6227 32.9804 60.4363L30.9853 60.5754Z" fill="black" mask="url(#path-2-inside-2_16_64)"/>
<mask id="path-4-inside-3_16_64" fill="white">
<path d="M50 25C50 21.717 49.3534 18.4661 48.097 15.4329C46.8406 12.3998 44.9991 9.6438 42.6777 7.32233C40.3562 5.00087 37.6002 3.15938 34.5671 1.90301C31.5339 0.646644 28.283 1.43507e-07 25 0C21.717 -1.43507e-07 18.4661 0.646644 15.4329 1.90301C12.3998 3.15938 9.6438 5.00087 7.32233 7.32233C5.00087 9.64379 3.15938 12.3998 1.90301 15.4329C0.646644 18.4661 0 21.717 0 25L25 25L50 25Z"/>
</mask>
<path d="M50 25C50 21.717 49.3534 18.4661 48.097 15.4329C46.8406 12.3998 44.9991 9.6438 42.6777 7.32233C40.3562 5.00087 37.6002 3.15938 34.5671 1.90301C31.5339 0.646644 28.283 1.43507e-07 25 0C21.717 -1.43507e-07 18.4661 0.646644 15.4329 1.90301C12.3998 3.15938 9.6438 5.00087 7.32233 7.32233C5.00087 9.64379 3.15938 12.3998 1.90301 15.4329C0.646644 18.4661 0 21.717 0 25L25 25L50 25Z" fill="#F63535" stroke="black" stroke-width="2" mask="url(#path-4-inside-3_16_64)"/>
<path d="M49.5 24.5C49.5 27.6604 46.925 30.6561 42.4541 32.8916C38.013 35.1121 31.8428 36.5 25 36.5C18.1572 36.5 11.987 35.1121 7.54594 32.8916C3.07498 30.6561 0.5 27.6604 0.5 24.5C0.5 21.3396 3.07498 18.3439 7.54594 16.1084C11.987 13.8879 18.1572 12.5 25 12.5C31.8428 12.5 38.013 13.8879 42.4541 16.1084C46.925 18.3439 49.5 21.3396 49.5 24.5Z" fill="#B92828" stroke="black"/>
<circle cx="25" cy="12" r="6.5" fill="white" stroke="black"/>
</svg>
